<mxfile host="app.diagrams.net" modified="2024-03-26T15:22:11.648Z" agent="Mozilla/5.0 (Windows NT 10.0; Win64; x64; rv:123.0) Gecko/20100101 Firefox/123.0" etag="RvWAhVoLXv3QgPY8Oz9o" version="24.1.0" type="github" pages="2">
  <diagram name="microstructure_homogenization" id="2a216829-ef6e-dabb-86c1-c78162f3ba2b">
    <mxGraphModel dx="944" dy="613" grid="1" gridSize="10" guides="1" tooltips="1" connect="1" arrows="1" fold="1" page="1" pageScale="1" pageWidth="850" pageHeight="1100" background="none" math="0" shadow="0">
      <root>
        <mxCell id="0" />
        <mxCell id="1" parent="0" />
        <mxCell id="Ow_sgtAgn3BazwAQavvg-2" value="LIST" style="swimlane;html=1;startSize=50;fontStyle=0;collapsible=0;horizontal=0;swimlaneLine=1;swimlaneFillColor=#ffffff;strokeWidth=2;whiteSpace=wrap;" parent="1" vertex="1">
          <mxGeometry x="5" y="110" width="840" height="290" as="geometry" />
        </mxCell>
        <mxCell id="Ow_sgtAgn3BazwAQavvg-6" value="" style="points=[[0.145,0.145,0],[0.5,0,0],[0.855,0.145,0],[1,0.5,0],[0.855,0.855,0],[0.5,1,0],[0.145,0.855,0],[0,0.5,0]];shape=mxgraph.bpmn.event;html=1;verticalLabelPosition=bottom;labelBackgroundColor=#ffffff;verticalAlign=top;align=center;perimeter=ellipsePerimeter;outlineConnect=0;aspect=fixed;outline=end;symbol=terminate2;" parent="Ow_sgtAgn3BazwAQavvg-2" vertex="1">
          <mxGeometry x="770" y="100" width="50" height="50" as="geometry" />
        </mxCell>
        <mxCell id="Ow_sgtAgn3BazwAQavvg-7" value="" style="points=[[0.145,0.145,0],[0.5,0,0],[0.855,0.145,0],[1,0.5,0],[0.855,0.855,0],[0.5,1,0],[0.145,0.855,0],[0,0.5,0]];shape=mxgraph.bpmn.event;html=1;verticalLabelPosition=bottom;labelBackgroundColor=#ffffff;verticalAlign=top;align=center;perimeter=ellipsePerimeter;outlineConnect=0;aspect=fixed;outline=standard;symbol=general;" parent="Ow_sgtAgn3BazwAQavvg-2" vertex="1">
          <mxGeometry x="70" y="100" width="50" height="50" as="geometry" />
        </mxCell>
        <mxCell id="Ow_sgtAgn3BazwAQavvg-3" value="TUD" style="swimlane;html=1;startSize=50;fontStyle=0;collapsible=0;horizontal=0;swimlaneLine=1;swimlaneFillColor=#ffffff;strokeWidth=2;whiteSpace=wrap;" parent="1" vertex="1">
          <mxGeometry x="5" y="400" width="840" height="220" as="geometry" />
        </mxCell>
        <mxCell id="Ow_sgtAgn3BazwAQavvg-4" value="SINTEF" style="swimlane;html=1;startSize=50;fontStyle=0;collapsible=0;horizontal=0;swimlaneLine=1;swimlaneFillColor=#ffffff;strokeWidth=2;whiteSpace=wrap;" parent="1" vertex="1">
          <mxGeometry x="5" y="620" width="840" height="260" as="geometry" />
        </mxCell>
        <mxCell id="Ow_sgtAgn3BazwAQavvg-5" value="Documentation and storage" style="points=[[0.25,0,0],[0.5,0,0],[0.75,0,0],[1,0.25,0],[1,0.5,0],[1,0.75,0],[0.75,1,0],[0.5,1,0],[0.25,1,0],[0,0.75,0],[0,0.5,0],[0,0.25,0]];shape=mxgraph.bpmn.task;whiteSpace=wrap;rectStyle=rounded;size=10;html=1;container=1;expand=0;collapsible=0;taskMarker=service;" parent="Ow_sgtAgn3BazwAQavvg-4" vertex="1">
          <mxGeometry x="150" y="60" width="120" height="80" as="geometry" />
        </mxCell>
        <mxCell id="Ow_sgtAgn3BazwAQavvg-9" value="" style="shape=datastore;html=1;labelPosition=center;verticalLabelPosition=bottom;align=center;verticalAlign=top;" parent="Ow_sgtAgn3BazwAQavvg-4" vertex="1">
          <mxGeometry x="380" y="170" width="60" height="70" as="geometry" />
        </mxCell>
        <mxCell id="Ow_sgtAgn3BazwAQavvg-10" value="" style="edgeStyle=elbowEdgeStyle;fontSize=12;html=1;endFill=0;startFill=0;endSize=6;startSize=6;dashed=1;dashPattern=1 4;endArrow=none;startArrow=none;rounded=0;exitX=0.5;exitY=1;exitDx=0;exitDy=0;exitPerimeter=0;entryX=0.5;entryY=0;entryDx=0;entryDy=0;" parent="Ow_sgtAgn3BazwAQavvg-4" source="Ow_sgtAgn3BazwAQavvg-5" target="Ow_sgtAgn3BazwAQavvg-9" edge="1">
          <mxGeometry width="160" relative="1" as="geometry">
            <mxPoint x="300" y="120" as="sourcePoint" />
            <mxPoint x="460" y="120" as="targetPoint" />
            <Array as="points" />
          </mxGeometry>
        </mxCell>
        <mxCell id="Ow_sgtAgn3BazwAQavvg-8" value="&lt;h1&gt;Microstructure homogenization workflow&lt;br&gt;&lt;/h1&gt;" style="text;html=1;spacing=5;spacingTop=-20;whiteSpace=wrap;overflow=hidden;rounded=0;" parent="1" vertex="1">
          <mxGeometry x="180" y="40" width="490" height="60" as="geometry" />
        </mxCell>
      </root>
    </mxGraphModel>
  </diagram>
  <diagram id="NhlDa7ss-MitgPKGdsCW" name="sofc_performance">
    <mxGraphModel dx="944" dy="613" grid="1" gridSize="10" guides="1" tooltips="1" connect="1" arrows="1" fold="1" page="1" pageScale="1" pageWidth="827" pageHeight="1169" math="0" shadow="0">
      <root>
        <mxCell id="0" />
        <mxCell id="1" parent="0" />
        <mxCell id="40vpw8KIt3N2z_lgxEn6-1" value="LIST" style="swimlane;html=1;startSize=50;fontStyle=0;collapsible=0;horizontal=0;swimlaneLine=1;swimlaneFillColor=#ffffff;strokeWidth=2;whiteSpace=wrap;fontSize=20;" parent="1" vertex="1">
          <mxGeometry x="70" y="100" width="1040" height="310" as="geometry" />
        </mxCell>
        <mxCell id="40vpw8KIt3N2z_lgxEn6-2" value="End" style="points=[[0.145,0.145,0],[0.5,0,0],[0.855,0.145,0],[1,0.5,0],[0.855,0.855,0],[0.5,1,0],[0.145,0.855,0],[0,0.5,0]];shape=mxgraph.bpmn.event;html=1;verticalLabelPosition=bottom;labelBackgroundColor=#ffffff;verticalAlign=top;align=center;perimeter=ellipsePerimeter;outlineConnect=0;aspect=fixed;outline=end;symbol=terminate2;" parent="40vpw8KIt3N2z_lgxEn6-1" vertex="1">
          <mxGeometry x="960" y="143" width="50" height="50" as="geometry" />
        </mxCell>
        <mxCell id="40vpw8KIt3N2z_lgxEn6-13" style="edgeStyle=orthogonalEdgeStyle;rounded=0;orthogonalLoop=1;jettySize=auto;html=1;exitX=1;exitY=0.5;exitDx=0;exitDy=0;exitPerimeter=0;entryX=0;entryY=0.5;entryDx=0;entryDy=0;entryPerimeter=0;" parent="40vpw8KIt3N2z_lgxEn6-1" source="40vpw8KIt3N2z_lgxEn6-3" target="40vpw8KIt3N2z_lgxEn6-35" edge="1">
          <mxGeometry relative="1" as="geometry">
            <mxPoint x="150" y="240" as="targetPoint" />
          </mxGeometry>
        </mxCell>
        <mxCell id="40vpw8KIt3N2z_lgxEn6-3" value="Start" style="points=[[0.145,0.145,0],[0.5,0,0],[0.855,0.145,0],[1,0.5,0],[0.855,0.855,0],[0.5,1,0],[0.145,0.855,0],[0,0.5,0]];shape=mxgraph.bpmn.event;html=1;verticalLabelPosition=bottom;labelBackgroundColor=#ffffff;verticalAlign=top;align=center;perimeter=ellipsePerimeter;outlineConnect=0;aspect=fixed;outline=standard;symbol=general;" parent="40vpw8KIt3N2z_lgxEn6-1" vertex="1">
          <mxGeometry x="70" y="143" width="50" height="50" as="geometry" />
        </mxCell>
        <mxCell id="40vpw8KIt3N2z_lgxEn6-10" value="COMSOL simulations" style="points=[[0.25,0,0],[0.5,0,0],[0.75,0,0],[1,0.25,0],[1,0.5,0],[1,0.75,0],[0.75,1,0],[0.5,1,0],[0.25,1,0],[0,0.75,0],[0,0.5,0],[0,0.25,0]];shape=mxgraph.bpmn.task;whiteSpace=wrap;rectStyle=rounded;size=10;html=1;container=1;expand=0;collapsible=0;taskMarker=abstract;isLoopStandard=1;fontSize=15;" parent="40vpw8KIt3N2z_lgxEn6-1" vertex="1">
          <mxGeometry x="480" y="128" width="120" height="80" as="geometry" />
        </mxCell>
        <mxCell id="40vpw8KIt3N2z_lgxEn6-11" value="List of simulation parameters" style="shape=mxgraph.bpmn.data;labelPosition=center;verticalLabelPosition=bottom;align=center;verticalAlign=top;size=15;html=1;bpmnTransferType=input;isCollection=1;" parent="40vpw8KIt3N2z_lgxEn6-1" vertex="1">
          <mxGeometry x="320" y="30" width="40" height="60" as="geometry" />
        </mxCell>
        <mxCell id="40vpw8KIt3N2z_lgxEn6-14" value="List of simulation results" style="shape=mxgraph.bpmn.data;labelPosition=center;verticalLabelPosition=bottom;align=center;verticalAlign=top;size=15;html=1;bpmnTransferType=output;isCollection=1;" parent="40vpw8KIt3N2z_lgxEn6-1" vertex="1">
          <mxGeometry x="640" y="30" width="40" height="60" as="geometry" />
        </mxCell>
        <mxCell id="40vpw8KIt3N2z_lgxEn6-19" style="edgeStyle=orthogonalEdgeStyle;rounded=0;orthogonalLoop=1;jettySize=auto;html=1;exitX=1;exitY=0.5;exitDx=0;exitDy=0;exitPerimeter=0;entryX=0;entryY=0.5;entryDx=0;entryDy=0;entryPerimeter=0;" parent="40vpw8KIt3N2z_lgxEn6-1" source="40vpw8KIt3N2z_lgxEn6-10" target="40vpw8KIt3N2z_lgxEn6-36" edge="1">
          <mxGeometry relative="1" as="geometry">
            <mxPoint x="590" y="190" as="targetPoint" />
          </mxGeometry>
        </mxCell>
        <mxCell id="40vpw8KIt3N2z_lgxEn6-22" style="edgeStyle=orthogonalEdgeStyle;rounded=0;orthogonalLoop=1;jettySize=auto;html=1;entryX=0;entryY=0.5;entryDx=0;entryDy=0;entryPerimeter=0;exitX=1;exitY=0.5;exitDx=0;exitDy=0;exitPerimeter=0;" parent="40vpw8KIt3N2z_lgxEn6-1" source="40vpw8KIt3N2z_lgxEn6-36" target="40vpw8KIt3N2z_lgxEn6-2" edge="1">
          <mxGeometry relative="1" as="geometry">
            <mxPoint x="760" y="190" as="sourcePoint" />
          </mxGeometry>
        </mxCell>
        <mxCell id="40vpw8KIt3N2z_lgxEn6-25" value="Performance table for ML training" style="shape=mxgraph.bpmn.data;labelPosition=center;verticalLabelPosition=bottom;align=center;verticalAlign=top;size=15;html=1;bpmnTransferType=output;" parent="40vpw8KIt3N2z_lgxEn6-1" vertex="1">
          <mxGeometry x="870" y="30" width="40" height="60" as="geometry" />
        </mxCell>
        <mxCell id="40vpw8KIt3N2z_lgxEn6-29" style="edgeStyle=orthogonalEdgeStyle;rounded=0;orthogonalLoop=1;jettySize=auto;html=1;exitX=0;exitY=0;exitDx=40;exitDy=37.5;exitPerimeter=0;entryX=1;entryY=1;entryDx=0;entryDy=0;entryPerimeter=0;" parent="40vpw8KIt3N2z_lgxEn6-1" source="40vpw8KIt3N2z_lgxEn6-11" target="40vpw8KIt3N2z_lgxEn6-11" edge="1">
          <mxGeometry relative="1" as="geometry" />
        </mxCell>
        <mxCell id="40vpw8KIt3N2z_lgxEn6-30" value="" style="edgeStyle=elbowEdgeStyle;fontSize=12;html=1;endFill=0;startFill=0;endSize=6;startSize=6;dashed=1;dashPattern=1 4;endArrow=none;startArrow=none;rounded=0;exitX=0.5;exitY=0;exitDx=0;exitDy=0;exitPerimeter=0;entryX=0;entryY=0.5;entryDx=0;entryDy=0;entryPerimeter=0;" parent="40vpw8KIt3N2z_lgxEn6-1" source="40vpw8KIt3N2z_lgxEn6-35" target="40vpw8KIt3N2z_lgxEn6-11" edge="1">
          <mxGeometry width="160" relative="1" as="geometry">
            <mxPoint x="260" y="320" as="sourcePoint" />
            <mxPoint x="420" y="320" as="targetPoint" />
            <Array as="points">
              <mxPoint x="250" y="100" />
            </Array>
          </mxGeometry>
        </mxCell>
        <mxCell id="40vpw8KIt3N2z_lgxEn6-32" value="" style="edgeStyle=elbowEdgeStyle;fontSize=12;html=1;endFill=0;startFill=0;endSize=6;startSize=6;dashed=1;dashPattern=1 4;endArrow=none;startArrow=none;rounded=0;exitX=0.75;exitY=0;exitDx=0;exitDy=0;exitPerimeter=0;entryX=0;entryY=0.5;entryDx=0;entryDy=0;entryPerimeter=0;" parent="40vpw8KIt3N2z_lgxEn6-1" source="40vpw8KIt3N2z_lgxEn6-10" target="40vpw8KIt3N2z_lgxEn6-14" edge="1">
          <mxGeometry width="160" relative="1" as="geometry">
            <mxPoint x="260" y="138" as="sourcePoint" />
            <mxPoint x="178" y="70" as="targetPoint" />
            <Array as="points">
              <mxPoint x="570" y="100" />
            </Array>
          </mxGeometry>
        </mxCell>
        <mxCell id="40vpw8KIt3N2z_lgxEn6-33" value="" style="edgeStyle=elbowEdgeStyle;fontSize=12;html=1;endFill=0;startFill=0;endSize=6;startSize=6;dashed=1;dashPattern=1 4;endArrow=none;startArrow=none;rounded=0;exitX=0.5;exitY=0;exitDx=0;exitDy=0;exitPerimeter=0;entryX=0;entryY=0.5;entryDx=0;entryDy=0;entryPerimeter=0;" parent="40vpw8KIt3N2z_lgxEn6-1" target="40vpw8KIt3N2z_lgxEn6-25" edge="1" source="40vpw8KIt3N2z_lgxEn6-36">
          <mxGeometry width="160" relative="1" as="geometry">
            <mxPoint x="670" y="128" as="sourcePoint" />
            <mxPoint x="188" y="80" as="targetPoint" />
            <Array as="points">
              <mxPoint x="770" y="90" />
            </Array>
          </mxGeometry>
        </mxCell>
        <mxCell id="40vpw8KIt3N2z_lgxEn6-35" value="Random parameters generation" style="points=[[0.25,0,0],[0.5,0,0],[0.75,0,0],[1,0.25,0],[1,0.5,0],[1,0.75,0],[0.75,1,0],[0.5,1,0],[0.25,1,0],[0,0.75,0],[0,0.5,0],[0,0.25,0]];shape=mxgraph.bpmn.task;whiteSpace=wrap;rectStyle=rounded;size=10;html=1;container=1;expand=0;collapsible=0;taskMarker=script;fontSize=14;" parent="40vpw8KIt3N2z_lgxEn6-1" vertex="1">
          <mxGeometry x="200" y="128" width="120" height="80" as="geometry" />
        </mxCell>
        <mxCell id="40vpw8KIt3N2z_lgxEn6-36" value="Results post-processing" style="points=[[0.25,0,0],[0.5,0,0],[0.75,0,0],[1,0.25,0],[1,0.5,0],[1,0.75,0],[0.75,1,0],[0.5,1,0],[0.25,1,0],[0,0.75,0],[0,0.5,0],[0,0.25,0]];shape=mxgraph.bpmn.task;whiteSpace=wrap;rectStyle=rounded;size=10;html=1;container=1;expand=0;collapsible=0;taskMarker=script;fontSize=14;" parent="40vpw8KIt3N2z_lgxEn6-1" vertex="1">
          <mxGeometry x="710" y="128" width="120" height="80" as="geometry" />
        </mxCell>
        <mxCell id="40vpw8KIt3N2z_lgxEn6-37" value="" style="edgeStyle=elbowEdgeStyle;fontSize=12;html=1;endArrow=blockThin;endFill=1;rounded=0;exitX=1;exitY=0.5;exitDx=0;exitDy=0;exitPerimeter=0;entryX=0;entryY=0.5;entryDx=0;entryDy=0;entryPerimeter=0;" parent="40vpw8KIt3N2z_lgxEn6-1" source="40vpw8KIt3N2z_lgxEn6-35" target="40vpw8KIt3N2z_lgxEn6-10" edge="1">
          <mxGeometry width="160" relative="1" as="geometry">
            <mxPoint x="260" y="270" as="sourcePoint" />
            <mxPoint x="420" y="270" as="targetPoint" />
          </mxGeometry>
        </mxCell>
        <mxCell id="40vpw8KIt3N2z_lgxEn6-38" value="Design space parameters" style="shape=mxgraph.bpmn.data;labelPosition=center;verticalLabelPosition=bottom;align=center;verticalAlign=top;size=15;html=1;bpmnTransferType=input;" parent="40vpw8KIt3N2z_lgxEn6-1" vertex="1">
          <mxGeometry x="130" y="30" width="40" height="60" as="geometry" />
        </mxCell>
        <mxCell id="40vpw8KIt3N2z_lgxEn6-39" value="" style="edgeStyle=elbowEdgeStyle;fontSize=12;html=1;endFill=0;startFill=0;endSize=6;startSize=6;dashed=1;dashPattern=1 4;endArrow=none;startArrow=none;rounded=0;exitX=0.25;exitY=0;exitDx=0;exitDy=0;exitPerimeter=0;" parent="40vpw8KIt3N2z_lgxEn6-1" source="40vpw8KIt3N2z_lgxEn6-35" edge="1">
          <mxGeometry width="160" relative="1" as="geometry">
            <mxPoint x="270" y="138" as="sourcePoint" />
            <mxPoint x="170" y="70" as="targetPoint" />
            <Array as="points">
              <mxPoint x="230" y="100" />
            </Array>
          </mxGeometry>
        </mxCell>
        <mxCell id="1wjj8wK5pJ-TCXuH2TW3-1" value="COMSOL template" style="shape=mxgraph.bpmn.data;labelPosition=center;verticalLabelPosition=bottom;align=center;verticalAlign=top;size=15;html=1;bpmnTransferType=output;" vertex="1" parent="40vpw8KIt3N2z_lgxEn6-1">
          <mxGeometry x="460" y="30" width="40" height="60" as="geometry" />
        </mxCell>
        <mxCell id="1wjj8wK5pJ-TCXuH2TW3-2" value="" style="edgeStyle=elbowEdgeStyle;fontSize=12;html=1;endFill=0;startFill=0;endSize=6;startSize=6;dashed=1;dashPattern=1 4;endArrow=none;startArrow=none;rounded=0;exitX=0.5;exitY=0;exitDx=0;exitDy=0;exitPerimeter=0;entryX=0;entryY=0;entryDx=40;entryDy=37.5;entryPerimeter=0;" edge="1" parent="40vpw8KIt3N2z_lgxEn6-1" source="40vpw8KIt3N2z_lgxEn6-10" target="1wjj8wK5pJ-TCXuH2TW3-1">
          <mxGeometry width="160" relative="1" as="geometry">
            <mxPoint x="580" y="138" as="sourcePoint" />
            <mxPoint x="650" y="70" as="targetPoint" />
            <Array as="points">
              <mxPoint x="540" y="100" />
            </Array>
          </mxGeometry>
        </mxCell>
        <mxCell id="40vpw8KIt3N2z_lgxEn6-5" value="SINTEF" style="swimlane;html=1;startSize=50;fontStyle=0;collapsible=0;horizontal=0;swimlaneLine=1;swimlaneFillColor=#ffffff;strokeWidth=2;whiteSpace=wrap;fontSize=20;" parent="1" vertex="1">
          <mxGeometry x="70" y="410" width="1040" height="260" as="geometry" />
        </mxCell>
        <mxCell id="40vpw8KIt3N2z_lgxEn6-6" value="Documentation and storage" style="points=[[0.25,0,0],[0.5,0,0],[0.75,0,0],[1,0.25,0],[1,0.5,0],[1,0.75,0],[0.75,1,0],[0.5,1,0],[0.25,1,0],[0,0.75,0],[0,0.5,0],[0,0.25,0]];shape=mxgraph.bpmn.task;whiteSpace=wrap;rectStyle=rounded;size=10;html=1;container=1;expand=0;collapsible=0;taskMarker=service;fontSize=15;" parent="40vpw8KIt3N2z_lgxEn6-5" vertex="1">
          <mxGeometry x="344" y="60" width="120" height="80" as="geometry" />
        </mxCell>
        <mxCell id="40vpw8KIt3N2z_lgxEn6-7" value="Dataspace" style="shape=datastore;html=1;labelPosition=center;verticalLabelPosition=bottom;align=center;verticalAlign=top;" parent="40vpw8KIt3N2z_lgxEn6-5" vertex="1">
          <mxGeometry x="544" y="110" width="110" height="100" as="geometry" />
        </mxCell>
        <mxCell id="40vpw8KIt3N2z_lgxEn6-8" value="" style="edgeStyle=elbowEdgeStyle;fontSize=12;html=1;endFill=0;startFill=0;endSize=6;startSize=6;dashed=1;dashPattern=1 4;endArrow=none;startArrow=none;rounded=0;exitX=0.5;exitY=1;exitDx=0;exitDy=0;exitPerimeter=0;entryX=0;entryY=0.7;entryDx=0;entryDy=0;" parent="40vpw8KIt3N2z_lgxEn6-5" source="40vpw8KIt3N2z_lgxEn6-6" target="40vpw8KIt3N2z_lgxEn6-7" edge="1">
          <mxGeometry width="160" relative="1" as="geometry">
            <mxPoint x="300" y="120" as="sourcePoint" />
            <mxPoint x="460" y="120" as="targetPoint" />
            <Array as="points">
              <mxPoint x="404" y="160" />
            </Array>
          </mxGeometry>
        </mxCell>
        <mxCell id="40vpw8KIt3N2z_lgxEn6-9" value="&lt;h1&gt;SOFC performance workflow&lt;br&gt;&lt;/h1&gt;" style="text;html=1;spacing=5;spacingTop=-20;whiteSpace=wrap;overflow=hidden;rounded=0;" parent="1" vertex="1">
          <mxGeometry x="390" y="10" width="490" height="60" as="geometry" />
        </mxCell>
        <mxCell id="40vpw8KIt3N2z_lgxEn6-26" value="" style="dashed=1;dashPattern=8 4;endArrow=blockThin;endFill=1;startArrow=oval;startFill=0;endSize=6;startSize=4;html=1;rounded=0;entryX=0.75;entryY=0;entryDx=0;entryDy=0;entryPerimeter=0;exitX=0.5;exitY=1;exitDx=0;exitDy=0;exitPerimeter=0;" parent="1" source="40vpw8KIt3N2z_lgxEn6-36" target="40vpw8KIt3N2z_lgxEn6-6" edge="1">
          <mxGeometry width="160" relative="1" as="geometry">
            <mxPoint x="760" y="350" as="sourcePoint" />
            <mxPoint x="490" y="420" as="targetPoint" />
          </mxGeometry>
        </mxCell>
        <mxCell id="40vpw8KIt3N2z_lgxEn6-28" value="" style="dashed=1;dashPattern=8 4;endArrow=blockThin;endFill=1;startArrow=oval;startFill=0;endSize=6;startSize=4;html=1;rounded=0;exitX=0.5;exitY=1;exitDx=0;exitDy=0;exitPerimeter=0;entryX=0.5;entryY=0;entryDx=0;entryDy=0;entryPerimeter=0;" parent="1" source="40vpw8KIt3N2z_lgxEn6-10" target="40vpw8KIt3N2z_lgxEn6-6" edge="1">
          <mxGeometry width="160" relative="1" as="geometry">
            <mxPoint x="560" y="295" as="sourcePoint" />
            <mxPoint x="314" y="700" as="targetPoint" />
          </mxGeometry>
        </mxCell>
        <mxCell id="40vpw8KIt3N2z_lgxEn6-40" value="" style="dashed=1;dashPattern=8 4;endArrow=blockThin;endFill=1;startArrow=oval;startFill=0;endSize=6;startSize=4;html=1;rounded=0;exitX=0.5;exitY=1;exitDx=0;exitDy=0;exitPerimeter=0;entryX=0.25;entryY=0;entryDx=0;entryDy=0;entryPerimeter=0;" parent="1" source="40vpw8KIt3N2z_lgxEn6-35" target="40vpw8KIt3N2z_lgxEn6-6" edge="1">
          <mxGeometry width="160" relative="1" as="geometry">
            <mxPoint x="520" y="318" as="sourcePoint" />
            <mxPoint x="491" y="480" as="targetPoint" />
          </mxGeometry>
        </mxCell>
      </root>
    </mxGraphModel>
  </diagram>
</mxfile>
